<?xml version="1.0" encoding="UTF-8"?>
<!-- Do not edit this file with editors other than draw.io -->
<!DOCTYPE svg PUBLIC "-//W3C//DTD SVG 1.1//EN" "http://www.w3.org/Graphics/SVG/1.1/DTD/svg11.dtd">
<svg xmlns="http://www.w3.org/2000/svg" style="background: transparent; background-color: transparent; color-scheme: light dark;" xmlns:xlink="http://www.w3.org/1999/xlink" version="1.1" width="461px" height="501px" viewBox="0 0 461 501" content="&lt;mxfile host=&quot;Electron&quot;&gt;&#10;  &lt;diagram name=&quot;Page-1&quot; id=&quot;a9P7nwLDFGDI-f9vsAsK&quot;&gt;&#10;    &lt;mxGraphModel dx=&quot;1784&quot; dy=&quot;600&quot; grid=&quot;1&quot; gridSize=&quot;10&quot; guides=&quot;1&quot; tooltips=&quot;1&quot; connect=&quot;1&quot; arrows=&quot;1&quot; fold=&quot;1&quot; page=&quot;1&quot; pageScale=&quot;1&quot; pageWidth=&quot;850&quot; pageHeight=&quot;1100&quot; math=&quot;0&quot; shadow=&quot;0&quot;&gt;&#10;      &lt;root&gt;&#10;        &lt;mxCell id=&quot;0&quot; /&gt;&#10;        &lt;mxCell id=&quot;1&quot; parent=&quot;0&quot; /&gt;&#10;        &lt;mxCell id=&quot;dw0iF2RVfoSowUq9LrTm-3&quot; parent=&quot;1&quot; style=&quot;rounded=1;whiteSpace=wrap;html=1;glass=0;verticalAlign=top;fillColor=#FFE6CC;strokeColor=#CC6600;fontStyle=1&quot; value=&quot;Kubernetes POD&quot; vertex=&quot;1&quot;&gt;&#10;          &lt;mxGeometry height=&quot;380&quot; width=&quot;460&quot; x=&quot;-30&quot; y=&quot;410&quot; as=&quot;geometry&quot; /&gt;&#10;        &lt;/mxCell&gt;&#10;        &lt;mxCell id=&quot;dw0iF2RVfoSowUq9LrTm-11&quot; parent=&quot;1&quot; style=&quot;rounded=0;whiteSpace=wrap;html=1;fillColor=#FFCC99;fontColor=#333333;strokeColor=none;verticalAlign=top;&quot; value=&quot;&amp;lt;b&amp;gt;S6 Overlay&amp;lt;/b&amp;gt;&quot; vertex=&quot;1&quot;&gt;&#10;          &lt;mxGeometry height=&quot;250&quot; width=&quot;425&quot; x=&quot;-15&quot; y=&quot;520&quot; as=&quot;geometry&quot; /&gt;&#10;        &lt;/mxCell&gt;&#10;        &lt;mxCell id=&quot;dw0iF2RVfoSowUq9LrTm-12&quot; parent=&quot;1&quot; style=&quot;rounded=0;whiteSpace=wrap;html=1;fillColor=#FFB366;strokeColor=none;fontStyle=1;verticalAlign=top;&quot; value=&quot;Master Agent&quot; vertex=&quot;1&quot;&gt;&#10;          &lt;mxGeometry height=&quot;100&quot; width=&quot;370&quot; x=&quot;12.5&quot; y=&quot;655&quot; as=&quot;geometry&quot; /&gt;&#10;        &lt;/mxCell&gt;&#10;        &lt;mxCell id=&quot;dw0iF2RVfoSowUq9LrTm-13&quot; parent=&quot;1&quot; style=&quot;rounded=0;whiteSpace=wrap;html=1;fillColor=#FFB366;strokeColor=none;fontStyle=1&quot; value=&quot;&quot; vertex=&quot;1&quot;&gt;&#10;          &lt;mxGeometry height=&quot;90&quot; width=&quot;262.5&quot; x=&quot;66.25&quot; y=&quot;560&quot; as=&quot;geometry&quot; /&gt;&#10;        &lt;/mxCell&gt;&#10;        &lt;mxCell id=&quot;dw0iF2RVfoSowUq9LrTm-14&quot; parent=&quot;1&quot; style=&quot;rounded=0;whiteSpace=wrap;html=1;strokeColor=none;fillColor=#FFB366;fontStyle=1&quot; value=&quot;Tunnel Proxy&amp;lt;div&amp;gt;Server&amp;lt;/div&amp;gt;&quot; vertex=&quot;1&quot;&gt;&#10;          &lt;mxGeometry height=&quot;70&quot; width=&quot;240&quot; x=&quot;77.5&quot; y=&quot;440&quot; as=&quot;geometry&quot; /&gt;&#10;        &lt;/mxCell&gt;&#10;        &lt;mxCell id=&quot;dw0iF2RVfoSowUq9LrTm-17&quot; parent=&quot;1&quot; style=&quot;rounded=0;whiteSpace=wrap;html=1;strokeColor=none;fillColor=#D99956;fontStyle=1&quot; value=&quot;CSR Gatekeeper&quot; vertex=&quot;1&quot;&gt;&#10;          &lt;mxGeometry height=&quot;65&quot; width=&quot;80&quot; x=&quot;22.5&quot; y=&quot;685&quot; as=&quot;geometry&quot; /&gt;&#10;        &lt;/mxCell&gt;&#10;        &lt;mxCell id=&quot;dw0iF2RVfoSowUq9LrTm-30&quot; edge=&quot;1&quot; parent=&quot;1&quot; source=&quot;dw0iF2RVfoSowUq9LrTm-18&quot; style=&quot;edgeStyle=orthogonalEdgeStyle;rounded=0;orthogonalLoop=1;jettySize=auto;html=1;&quot; target=&quot;dw0iF2RVfoSowUq9LrTm-21&quot;&gt;&#10;          &lt;mxGeometry relative=&quot;1&quot; as=&quot;geometry&quot; /&gt;&#10;        &lt;/mxCell&gt;&#10;        &lt;mxCell id=&quot;dw0iF2RVfoSowUq9LrTm-18&quot; parent=&quot;1&quot; style=&quot;rounded=0;whiteSpace=wrap;html=1;strokeColor=none;fillColor=#D99956;fontStyle=1&quot; value=&quot;Kine&quot; vertex=&quot;1&quot;&gt;&#10;          &lt;mxGeometry height=&quot;65&quot; width=&quot;80&quot; x=&quot;112.5&quot; y=&quot;685&quot; as=&quot;geometry&quot; /&gt;&#10;        &lt;/mxCell&gt;&#10;        &lt;mxCell id=&quot;dw0iF2RVfoSowUq9LrTm-19&quot; parent=&quot;1&quot; style=&quot;rounded=0;whiteSpace=wrap;html=1;strokeColor=none;fillColor=#D99956;fontStyle=1&quot; value=&quot;healthz&quot; vertex=&quot;1&quot;&gt;&#10;          &lt;mxGeometry height=&quot;65&quot; width=&quot;80&quot; x=&quot;202.5&quot; y=&quot;685&quot; as=&quot;geometry&quot; /&gt;&#10;        &lt;/mxCell&gt;&#10;        &lt;mxCell id=&quot;dw0iF2RVfoSowUq9LrTm-20&quot; parent=&quot;1&quot; style=&quot;rounded=0;whiteSpace=wrap;html=1;strokeColor=none;fillColor=#D99956;fontStyle=1&quot; value=&quot;Address&amp;lt;div&amp;gt;Setup&amp;lt;/div&amp;gt;&quot; vertex=&quot;1&quot;&gt;&#10;          &lt;mxGeometry height=&quot;65&quot; width=&quot;80&quot; x=&quot;292.5&quot; y=&quot;685&quot; as=&quot;geometry&quot; /&gt;&#10;        &lt;/mxCell&gt;&#10;        &lt;mxCell id=&quot;dw0iF2RVfoSowUq9LrTm-21&quot; parent=&quot;1&quot; style=&quot;rounded=1;whiteSpace=wrap;html=1;fillColor=#FFE6CC;strokeColor=#CC6600;verticalAlign=top;&quot; value=&quot;&amp;lt;b&amp;gt;External Storage&amp;lt;/b&amp;gt;&quot; vertex=&quot;1&quot;&gt;&#10;          &lt;mxGeometry height=&quot;90&quot; width=&quot;250&quot; x=&quot;60&quot; y=&quot;820&quot; as=&quot;geometry&quot; /&gt;&#10;        &lt;/mxCell&gt;&#10;        &lt;mxCell id=&quot;dw0iF2RVfoSowUq9LrTm-23&quot; parent=&quot;1&quot; style=&quot;outlineConnect=0;dashed=0;verticalLabelPosition=bottom;verticalAlign=top;align=center;html=1;shape=mxgraph.aws3.mysql_db_instance;fillColor=#2E73B8;gradientColor=none;&quot; value=&quot;&quot; vertex=&quot;1&quot;&gt;&#10;          &lt;mxGeometry height=&quot;49.75&quot; width=&quot;40&quot; x=&quot;180&quot; y=&quot;850&quot; as=&quot;geometry&quot; /&gt;&#10;        &lt;/mxCell&gt;&#10;        &lt;mxCell id=&quot;dw0iF2RVfoSowUq9LrTm-24&quot; parent=&quot;1&quot; style=&quot;shape=cylinder3;whiteSpace=wrap;html=1;boundedLbl=1;backgroundOutline=1;size=15;&quot; value=&quot;...&quot; vertex=&quot;1&quot;&gt;&#10;          &lt;mxGeometry height=&quot;55&quot; width=&quot;40&quot; x=&quot;240&quot; y=&quot;844.75&quot; as=&quot;geometry&quot; /&gt;&#10;        &lt;/mxCell&gt;&#10;        &lt;mxCell id=&quot;dw0iF2RVfoSowUq9LrTm-25&quot; parent=&quot;1&quot; style=&quot;shape=cylinder3;whiteSpace=wrap;html=1;boundedLbl=1;backgroundOutline=1;size=15;&quot; value=&quot;Nats&quot; vertex=&quot;1&quot;&gt;&#10;          &lt;mxGeometry height=&quot;55&quot; width=&quot;40&quot; x=&quot;70&quot; y=&quot;844.75&quot; as=&quot;geometry&quot; /&gt;&#10;        &lt;/mxCell&gt;&#10;        &lt;mxCell id=&quot;dw0iF2RVfoSowUq9LrTm-27&quot; parent=&quot;1&quot; style=&quot;rounded=0;whiteSpace=wrap;html=1;strokeColor=none;fillColor=#D99956;fontStyle=1&quot; value=&quot;API&amp;lt;div&amp;gt;Server&amp;lt;/div&amp;gt;&quot; vertex=&quot;1&quot;&gt;&#10;          &lt;mxGeometry height=&quot;65&quot; width=&quot;72.5&quot; x=&quot;76.25&quot; y=&quot;572.5&quot; as=&quot;geometry&quot; /&gt;&#10;        &lt;/mxCell&gt;&#10;        &lt;mxCell id=&quot;dw0iF2RVfoSowUq9LrTm-28&quot; parent=&quot;1&quot; style=&quot;rounded=0;whiteSpace=wrap;html=1;strokeColor=none;fillColor=#D99956;fontStyle=1&quot; value=&quot;Controller&amp;lt;div&amp;gt;Manager&amp;lt;/div&amp;gt;&quot; vertex=&quot;1&quot;&gt;&#10;          &lt;mxGeometry height=&quot;65&quot; width=&quot;72.5&quot; x=&quot;156.25&quot; y=&quot;572.5&quot; as=&quot;geometry&quot; /&gt;&#10;        &lt;/mxCell&gt;&#10;        &lt;mxCell id=&quot;dw0iF2RVfoSowUq9LrTm-29&quot; parent=&quot;1&quot; style=&quot;rounded=0;whiteSpace=wrap;html=1;strokeColor=none;fillColor=#D99956;fontStyle=1&quot; value=&quot;Scheduler&quot; vertex=&quot;1&quot;&gt;&#10;          &lt;mxGeometry height=&quot;65&quot; width=&quot;72.5&quot; x=&quot;242.5&quot; y=&quot;572.5&quot; as=&quot;geometry&quot; /&gt;&#10;        &lt;/mxCell&gt;&#10;        &lt;mxCell id=&quot;dw0iF2RVfoSowUq9LrTm-31&quot; parent=&quot;1&quot; style=&quot;outlineConnect=0;dashed=0;verticalLabelPosition=bottom;verticalAlign=top;align=center;html=1;shape=mxgraph.aws3.postgre_sql_instance;fillColor=#2E73B8;gradientColor=none;&quot; value=&quot;&quot; vertex=&quot;1&quot;&gt;&#10;          &lt;mxGeometry height=&quot;49.75&quot; width=&quot;47&quot; x=&quot;120&quot; y=&quot;850&quot; as=&quot;geometry&quot; /&gt;&#10;        &lt;/mxCell&gt;&#10;      &lt;/root&gt;&#10;    &lt;/mxGraphModel&gt;&#10;  &lt;/diagram&gt;&#10;&lt;/mxfile&gt;&#10;"><defs/><g><g data-cell-id="0"><g data-cell-id="1"><g data-cell-id="dw0iF2RVfoSowUq9LrTm-3"><g transform="translate(0.5,0.5)"><rect x="0" y="0" width="460" height="380" rx="57" ry="57" fill="#ffe6cc" stroke="#cc6600" pointer-events="all" style="fill: light-dark(rgb(255, 230, 204), rgb(54, 33, 10)); stroke: light-dark(rgb(204, 102, 0), rgb(212, 125, 37));"/></g><g><g><switch><foreignObject style="overflow: visible; text-align: left;" pointer-events="none" width="100%" height="100%" requiredFeatures="http://www.w3.org/TR/SVG11/feature#Extensibility"><div xmlns="http://www.w3.org/1999/xhtml" style="display: flex; align-items: unsafe flex-start; justify-content: unsafe center; width: 458px; height: 1px; padding-top: 7px; margin-left: 1px;"><div style="box-sizing: border-box; font-size: 0; text-align: center; color: #000000; "><div style="display: inline-block; font-size: 12px; font-family: Helvetica; color: light-dark(#000000, #ffffff); line-height: 1.2; pointer-events: all; font-weight: bold; white-space: normal; word-wrap: normal; ">Kubernetes POD</div></div></div></foreignObject><text x="230" y="19" fill="light-dark(#000000, #ffffff)" font-family="Helvetica" font-size="12px" text-anchor="middle" font-weight="bold">Kubernetes POD</text></switch></g></g></g><g data-cell-id="dw0iF2RVfoSowUq9LrTm-11"><g transform="translate(0.5,0.5)"><rect x="15" y="110" width="425" height="250" fill="#ffcc99" stroke="none" pointer-events="all" style="fill: light-dark(rgb(255, 204, 153), rgb(94, 50, 6));"/></g><g><g><switch><foreignObject style="overflow: visible; text-align: left;" pointer-events="none" width="100%" height="100%" requiredFeatures="http://www.w3.org/TR/SVG11/feature#Extensibility"><div xmlns="http://www.w3.org/1999/xhtml" style="display: flex; align-items: unsafe flex-start; justify-content: unsafe center; width: 423px; height: 1px; padding-top: 117px; margin-left: 16px;"><div style="box-sizing: border-box; font-size: 0; text-align: center; color: #333333; "><div style="display: inline-block; font-size: 12px; font-family: Helvetica; color: light-dark(#333333, #c1c1c1); line-height: 1.2; pointer-events: all; white-space: normal; word-wrap: normal; "><b>S6 Overlay</b></div></div></div></foreignObject><text x="228" y="129" fill="#333333" font-family="Helvetica" font-size="12px" text-anchor="middle">S6 Overlay</text></switch></g></g></g><g data-cell-id="dw0iF2RVfoSowUq9LrTm-12"><g transform="translate(0.5,0.5)"><rect x="42.5" y="245" width="370" height="100" fill="#ffb366" stroke="none" pointer-events="all" style="fill: light-dark(rgb(255, 179, 102), rgb(130, 65, 0));"/></g><g><g><switch><foreignObject style="overflow: visible; text-align: left;" pointer-events="none" width="100%" height="100%" requiredFeatures="http://www.w3.org/TR/SVG11/feature#Extensibility"><div xmlns="http://www.w3.org/1999/xhtml" style="display: flex; align-items: unsafe flex-start; justify-content: unsafe center; width: 368px; height: 1px; padding-top: 252px; margin-left: 44px;"><div style="box-sizing: border-box; font-size: 0; text-align: center; color: #000000; "><div style="display: inline-block; font-size: 12px; font-family: Helvetica; color: light-dark(#000000, #ffffff); line-height: 1.2; pointer-events: all; font-weight: bold; white-space: normal; word-wrap: normal; ">Master Agent</div></div></div></foreignObject><text x="228" y="264" fill="light-dark(#000000, #ffffff)" font-family="Helvetica" font-size="12px" text-anchor="middle" font-weight="bold">Master Agent</text></switch></g></g></g><g data-cell-id="dw0iF2RVfoSowUq9LrTm-13"><g transform="translate(0.5,0.5)"><rect x="96.25" y="150" width="262.5" height="90" fill="#ffb366" stroke="none" pointer-events="all" style="fill: light-dark(rgb(255, 179, 102), rgb(130, 65, 0));"/></g></g><g data-cell-id="dw0iF2RVfoSowUq9LrTm-14"><g transform="translate(0.5,0.5)"><rect x="107.5" y="30" width="240" height="70" fill="#ffb366" stroke="none" pointer-events="all" style="fill: light-dark(rgb(255, 179, 102), rgb(130, 65, 0));"/></g><g><g><switch><foreignObject style="overflow: visible; text-align: left;" pointer-events="none" width="100%" height="100%" requiredFeatures="http://www.w3.org/TR/SVG11/feature#Extensibility"><div xmlns="http://www.w3.org/1999/xhtml" style="display: flex; align-items: unsafe center; justify-content: unsafe center; width: 238px; height: 1px; padding-top: 65px; margin-left: 109px;"><div style="box-sizing: border-box; font-size: 0; text-align: center; color: #000000; "><div style="display: inline-block; font-size: 12px; font-family: Helvetica; color: light-dark(#000000, #ffffff); line-height: 1.2; pointer-events: all; font-weight: bold; white-space: normal; word-wrap: normal; ">Tunnel Proxy<div>Server</div></div></div></div></foreignObject><text x="228" y="69" fill="light-dark(#000000, #ffffff)" font-family="Helvetica" font-size="12px" text-anchor="middle" font-weight="bold">Tunnel Proxy...</text></switch></g></g></g><g data-cell-id="dw0iF2RVfoSowUq9LrTm-17"><g transform="translate(0.5,0.5)"><rect x="52.5" y="275" width="80" height="65" fill="#d99956" stroke="none" pointer-events="all" style="fill: light-dark(rgb(217, 153, 86), rgb(146, 91, 34));"/></g><g><g><switch><foreignObject style="overflow: visible; text-align: left;" pointer-events="none" width="100%" height="100%" requiredFeatures="http://www.w3.org/TR/SVG11/feature#Extensibility"><div xmlns="http://www.w3.org/1999/xhtml" style="display: flex; align-items: unsafe center; justify-content: unsafe center; width: 78px; height: 1px; padding-top: 308px; margin-left: 54px;"><div style="box-sizing: border-box; font-size: 0; text-align: center; color: #000000; "><div style="display: inline-block; font-size: 12px; font-family: Helvetica; color: light-dark(#000000, #ffffff); line-height: 1.2; pointer-events: all; font-weight: bold; white-space: normal; word-wrap: normal; ">CSR Gatekeeper</div></div></div></foreignObject><text x="93" y="311" fill="light-dark(#000000, #ffffff)" font-family="Helvetica" font-size="12px" text-anchor="middle" font-weight="bold">CSR Gatekeeper</text></switch></g></g></g><g data-cell-id="dw0iF2RVfoSowUq9LrTm-30"><g transform="translate(0.5,0.5)"><path d="M 182.5 340 L 182.5 375 L 215 375 L 215 403.63" fill="none" stroke="#000000" stroke-miterlimit="10" pointer-events="stroke" style="stroke: light-dark(rgb(0, 0, 0), rgb(255, 255, 255));"/><path d="M 215 408.88 L 211.5 401.88 L 215 403.63 L 218.5 401.88 Z" fill="#000000" stroke="#000000" stroke-miterlimit="10" pointer-events="all" style="fill: light-dark(rgb(0, 0, 0), rgb(255, 255, 255)); stroke: light-dark(rgb(0, 0, 0), rgb(255, 255, 255));"/></g></g><g data-cell-id="dw0iF2RVfoSowUq9LrTm-18"><g transform="translate(0.5,0.5)"><rect x="142.5" y="275" width="80" height="65" fill="#d99956" stroke="none" pointer-events="all" style="fill: light-dark(rgb(217, 153, 86), rgb(146, 91, 34));"/></g><g><g><switch><foreignObject style="overflow: visible; text-align: left;" pointer-events="none" width="100%" height="100%" requiredFeatures="http://www.w3.org/TR/SVG11/feature#Extensibility"><div xmlns="http://www.w3.org/1999/xhtml" style="display: flex; align-items: unsafe center; justify-content: unsafe center; width: 78px; height: 1px; padding-top: 308px; margin-left: 144px;"><div style="box-sizing: border-box; font-size: 0; text-align: center; color: #000000; "><div style="display: inline-block; font-size: 12px; font-family: Helvetica; color: light-dark(#000000, #ffffff); line-height: 1.2; pointer-events: all; font-weight: bold; white-space: normal; word-wrap: normal; ">Kine</div></div></div></foreignObject><text x="183" y="311" fill="light-dark(#000000, #ffffff)" font-family="Helvetica" font-size="12px" text-anchor="middle" font-weight="bold">Kine</text></switch></g></g></g><g data-cell-id="dw0iF2RVfoSowUq9LrTm-19"><g transform="translate(0.5,0.5)"><rect x="232.5" y="275" width="80" height="65" fill="#d99956" stroke="none" pointer-events="all" style="fill: light-dark(rgb(217, 153, 86), rgb(146, 91, 34));"/></g><g><g><switch><foreignObject style="overflow: visible; text-align: left;" pointer-events="none" width="100%" height="100%" requiredFeatures="http://www.w3.org/TR/SVG11/feature#Extensibility"><div xmlns="http://www.w3.org/1999/xhtml" style="display: flex; align-items: unsafe center; justify-content: unsafe center; width: 78px; height: 1px; padding-top: 308px; margin-left: 234px;"><div style="box-sizing: border-box; font-size: 0; text-align: center; color: #000000; "><div style="display: inline-block; font-size: 12px; font-family: Helvetica; color: light-dark(#000000, #ffffff); line-height: 1.2; pointer-events: all; font-weight: bold; white-space: normal; word-wrap: normal; ">healthz</div></div></div></foreignObject><text x="273" y="311" fill="light-dark(#000000, #ffffff)" font-family="Helvetica" font-size="12px" text-anchor="middle" font-weight="bold">healthz</text></switch></g></g></g><g data-cell-id="dw0iF2RVfoSowUq9LrTm-20"><g transform="translate(0.5,0.5)"><rect x="322.5" y="275" width="80" height="65" fill="#d99956" stroke="none" pointer-events="all" style="fill: light-dark(rgb(217, 153, 86), rgb(146, 91, 34));"/></g><g><g><switch><foreignObject style="overflow: visible; text-align: left;" pointer-events="none" width="100%" height="100%" requiredFeatures="http://www.w3.org/TR/SVG11/feature#Extensibility"><div xmlns="http://www.w3.org/1999/xhtml" style="display: flex; align-items: unsafe center; justify-content: unsafe center; width: 78px; height: 1px; padding-top: 308px; margin-left: 324px;"><div style="box-sizing: border-box; font-size: 0; text-align: center; color: #000000; "><div style="display: inline-block; font-size: 12px; font-family: Helvetica; color: light-dark(#000000, #ffffff); line-height: 1.2; pointer-events: all; font-weight: bold; white-space: normal; word-wrap: normal; ">Address<div>Setup</div></div></div></div></foreignObject><text x="363" y="311" fill="light-dark(#000000, #ffffff)" font-family="Helvetica" font-size="12px" text-anchor="middle" font-weight="bold">Address...</text></switch></g></g></g><g data-cell-id="dw0iF2RVfoSowUq9LrTm-21"><g transform="translate(0.5,0.5)"><rect x="90" y="410" width="250" height="90" rx="13.5" ry="13.5" fill="#ffe6cc" stroke="#cc6600" pointer-events="all" style="fill: light-dark(rgb(255, 230, 204), rgb(54, 33, 10)); stroke: light-dark(rgb(204, 102, 0), rgb(212, 125, 37));"/></g><g><g><switch><foreignObject style="overflow: visible; text-align: left;" pointer-events="none" width="100%" height="100%" requiredFeatures="http://www.w3.org/TR/SVG11/feature#Extensibility"><div xmlns="http://www.w3.org/1999/xhtml" style="display: flex; align-items: unsafe flex-start; justify-content: unsafe center; width: 248px; height: 1px; padding-top: 417px; margin-left: 91px;"><div style="box-sizing: border-box; font-size: 0; text-align: center; color: #000000; "><div style="display: inline-block; font-size: 12px; font-family: Helvetica; color: light-dark(#000000, #ffffff); line-height: 1.2; pointer-events: all; white-space: normal; word-wrap: normal; "><b>External Storage</b></div></div></div></foreignObject><text x="215" y="429" fill="light-dark(#000000, #ffffff)" font-family="Helvetica" font-size="12px" text-anchor="middle">External Storage</text></switch></g></g></g><g data-cell-id="dw0iF2RVfoSowUq9LrTm-23"><g transform="translate(0.5,0.5)"><path d="M 250 465.91 L 250 468.07 C 250 468.77 248.2 469.46 247.15 469.7 C 244.1 470.53 239.3 470.4 237.04 469.77 C 235.88 469.49 233.87 468.78 233.87 468.08 L 233.87 465.88 C 233.92 465.18 235.78 464.38 237.69 464.06 C 240.5 463.6 243.21 463.61 245.55 463.95 C 247.24 464.15 249.98 465.02 250 465.91 Z M 250 470.27 L 250 487.39 C 249.88 488.04 247.58 488.86 246.61 489 C 243.26 489.68 239.18 489.75 236.14 488.88 C 235.13 488.59 233.86 487.98 233.87 487.29 L 233.87 470.1 C 234.5 470.69 235.59 471.22 237.53 471.65 C 239.77 472.17 243.69 472.19 246.53 471.59 C 248.03 471.3 249.32 470.79 250 470.27 Z M 232.96 488.54 L 216.78 488.54 C 213.28 488.54 210 485.04 210 480.7 L 210 447.77 C 210 443.39 213.36 440 216.75 440 L 243.07 440 C 247.49 440 250 444.25 250 448 L 250 463.35 C 248.99 462.74 246.94 462.12 245.03 461.9 C 241.63 461.47 237.99 461.67 235.51 462.28 C 233.88 462.65 231.68 463.53 231.68 464.31 L 231.68 485.18 C 231.68 485.68 232.41 486.3 232.96 486.52 Z" fill="#2e73b8" stroke="none" pointer-events="all" style="fill: light-dark(rgb(46, 115, 184), rgb(95, 155, 214));"/><path d="M 250 461.42 L 250 463.35 C 248.99 462.73 246.94 462.14 245.03 461.9 C 241.64 461.48 238 461.67 235.51 462.28 C 233.89 462.65 231.68 463.53 231.68 464.31 L 231.68 462.39 C 231.68 461.54 234.12 460.6 236.17 460.2 C 239.12 459.65 242.56 459.61 245.43 460.03 C 247.24 460.29 248.85 460.78 250 461.42 Z M 250 465.91 L 250 468.07 C 250 468.77 248.21 469.46 247.15 469.7 C 244.1 470.52 239.28 470.41 237.04 469.77 C 235.88 469.49 233.87 468.78 233.87 468.08 L 233.87 465.88 C 233.87 466.7 236.32 467.43 237.49 467.68 C 240.27 468.28 243.94 468.22 246.95 467.57 C 248.27 467.26 250 466.55 250 465.91 Z M 250 485.16 L 250 487.39 C 249.88 488.04 247.58 488.86 246.61 489 C 243.27 489.66 239.18 489.75 236.14 488.88 C 235.13 488.59 233.86 487.97 233.87 487.29 L 233.87 485.11 C 233.87 485.9 235.62 486.59 236.71 486.85 C 239.45 487.43 242.63 487.49 246.19 486.89 C 248.04 486.59 249.9 485.78 250 485.16 Z M 232.96 486.52 L 232.96 488.54 L 216.78 488.54 C 213.29 488.54 210 485.03 210 480.7 L 210 478.69 C 210 483.18 213.38 486.52 216.78 486.52 Z" fill-opacity="0.3" fill="#000000" stroke="none" pointer-events="all" style="fill: light-dark(rgb(0, 0, 0), rgb(237, 237, 237));"/><rect x="210" y="440" width="0" height="0" fill="none" stroke="#000000" pointer-events="all" style="stroke: light-dark(rgb(0, 0, 0), rgb(255, 255, 255));"/><path d="M 237.58 453.24 C 237.92 452.96 238 452.3 238.05 451.73 C 238.12 450.83 238.12 448.79 238.03 448.16 C 237.97 447.63 237.85 447.04 237.45 446.84 C 237.11 446.68 236.72 446.77 236.53 446.91 C 236.28 447.11 236.18 447.43 236.12 447.73 C 235.93 448.71 235.97 450.63 236.01 451.53 C 236.07 452.54 236.23 452.98 236.45 453.19 C 236.74 453.5 237.27 453.5 237.58 453.24 Z M 222.84 445.53 L 222.84 454.56 L 221.41 454.56 L 221.41 447.28 L 220.05 454.56 L 218.69 454.56 L 217.34 447.3 L 217.33 454.56 L 215.89 454.56 L 215.89 445.53 L 218.24 445.53 L 219.37 451.92 L 220.5 445.53 Z M 227.91 447.71 L 226.47 454.18 C 226.11 455.64 225.9 456.4 225.26 456.69 C 224.83 456.88 224.2 456.86 223.61 456.84 L 223.61 455.53 L 224.06 455.53 C 224.62 455.53 224.82 455.14 224.87 454.55 L 223.22 447.71 L 224.73 447.71 L 225.64 452.44 L 226.39 447.71 Z M 232.21 448.07 C 232.21 447.7 232.2 447.32 231.96 447 C 231.71 446.68 231.01 446.65 230.68 447.06 C 230.44 447.36 230.39 447.96 230.57 448.38 C 230.84 448.92 231.44 449.07 232.21 449.49 C 232.66 449.74 233.37 450.03 233.77 450.76 C 234.09 451.3 234.14 452.64 233.76 453.5 C 233.38 454.33 232.6 454.88 231.09 454.83 C 230.05 454.77 229.38 454.4 229.02 453.56 C 228.86 453.15 228.78 452.58 228.81 451.85 L 230.39 451.85 C 230.37 452.71 230.54 453.11 230.86 453.29 C 231.34 453.53 231.96 453.49 232.24 452.92 C 232.46 452.48 232.42 451.66 231.99 451.32 C 231.41 450.76 230.54 450.7 229.79 450.13 C 229.38 449.77 228.83 449.29 228.88 447.82 C 228.9 446.78 229.32 445.83 230.38 445.48 C 230.99 445.29 231.91 445.27 232.64 445.63 C 233.53 446.12 233.76 447.01 233.72 448.07 Z M 239.99 454.66 L 239 455.71 L 238.1 454.57 C 237.67 454.77 236.96 454.8 236.39 454.67 C 235.3 454.43 234.81 453.59 234.61 452.35 C 234.45 451.32 234.4 449.49 234.58 447.91 C 234.71 446.82 235.09 445.82 236.05 445.44 C 236.77 445.16 237.78 445.23 238.33 445.5 C 239.25 445.95 239.54 446.98 239.67 448.02 C 239.79 449.08 239.79 450.71 239.68 451.98 C 239.58 452.76 239.4 453.31 239.15 453.68 Z M 244.74 454.56 L 240.36 454.56 L 240.36 445.53 L 241.94 445.53 L 241.94 453.08 L 244.74 453.08 Z M 237.64 485.08 L 237.64 473.53 L 240.07 473.53 L 241.8 482.04 L 243.53 473.53 L 245.96 473.53 L 245.96 485.08 L 244.44 485.08 L 244.44 475.56 L 242.49 485.08 L 241.13 485.08 L 239.16 475.55 L 239.16 485.08 Z" fill="#ffffff" stroke="none" pointer-events="all" style="fill: light-dark(rgb(255, 255, 255), rgb(18, 18, 18));"/></g></g><g data-cell-id="dw0iF2RVfoSowUq9LrTm-24"><g transform="translate(0.5,0.5)"><path d="M 270 449.75 C 270 441.47 278.95 434.75 290 434.75 C 295.3 434.75 300.39 436.33 304.14 439.14 C 307.89 441.96 310 445.77 310 449.75 L 310 474.75 C 310 483.03 301.05 489.75 290 489.75 C 278.95 489.75 270 483.03 270 474.75 Z" fill="#ffffff" stroke="#000000" stroke-miterlimit="10" pointer-events="all" style="fill: light-dark(#ffffff, var(--ge-dark-color, #121212)); stroke: light-dark(rgb(0, 0, 0), rgb(255, 255, 255));"/><path d="M 310 449.75 C 310 458.03 301.05 464.75 290 464.75 C 278.95 464.75 270 458.03 270 449.75" fill="none" stroke="#000000" stroke-miterlimit="10" pointer-events="all" style="stroke: light-dark(rgb(0, 0, 0), rgb(255, 255, 255));"/></g><g><g><switch><foreignObject style="overflow: visible; text-align: left;" pointer-events="none" width="100%" height="100%" requiredFeatures="http://www.w3.org/TR/SVG11/feature#Extensibility"><div xmlns="http://www.w3.org/1999/xhtml" style="display: flex; align-items: unsafe center; justify-content: unsafe center; width: 38px; height: 1px; padding-top: 475px; margin-left: 271px;"><div style="box-sizing: border-box; font-size: 0; text-align: center; color: #000000; "><div style="display: inline-block; font-size: 12px; font-family: Helvetica; color: light-dark(#000000, #ffffff); line-height: 1.2; pointer-events: all; white-space: normal; word-wrap: normal; ">...</div></div></div></foreignObject><text x="290" y="478" fill="light-dark(#000000, #ffffff)" font-family="Helvetica" font-size="12px" text-anchor="middle">...</text></switch></g></g></g><g data-cell-id="dw0iF2RVfoSowUq9LrTm-25"><g transform="translate(0.5,0.5)"><path d="M 100 449.75 C 100 441.47 108.95 434.75 120 434.75 C 125.3 434.75 130.39 436.33 134.14 439.14 C 137.89 441.96 140 445.77 140 449.75 L 140 474.75 C 140 483.03 131.05 489.75 120 489.75 C 108.95 489.75 100 483.03 100 474.75 Z" fill="#ffffff" stroke="#000000" stroke-miterlimit="10" pointer-events="all" style="fill: light-dark(#ffffff, var(--ge-dark-color, #121212)); stroke: light-dark(rgb(0, 0, 0), rgb(255, 255, 255));"/><path d="M 140 449.75 C 140 458.03 131.05 464.75 120 464.75 C 108.95 464.75 100 458.03 100 449.75" fill="none" stroke="#000000" stroke-miterlimit="10" pointer-events="all" style="stroke: light-dark(rgb(0, 0, 0), rgb(255, 255, 255));"/></g><g><g><switch><foreignObject style="overflow: visible; text-align: left;" pointer-events="none" width="100%" height="100%" requiredFeatures="http://www.w3.org/TR/SVG11/feature#Extensibility"><div xmlns="http://www.w3.org/1999/xhtml" style="display: flex; align-items: unsafe center; justify-content: unsafe center; width: 38px; height: 1px; padding-top: 475px; margin-left: 101px;"><div style="box-sizing: border-box; font-size: 0; text-align: center; color: #000000; "><div style="display: inline-block; font-size: 12px; font-family: Helvetica; color: light-dark(#000000, #ffffff); line-height: 1.2; pointer-events: all; white-space: normal; word-wrap: normal; ">Nats</div></div></div></foreignObject><text x="120" y="478" fill="light-dark(#000000, #ffffff)" font-family="Helvetica" font-size="12px" text-anchor="middle">Nats</text></switch></g></g></g><g data-cell-id="dw0iF2RVfoSowUq9LrTm-27"><g transform="translate(0.5,0.5)"><rect x="106.25" y="162.5" width="72.5" height="65" fill="#d99956" stroke="none" pointer-events="all" style="fill: light-dark(rgb(217, 153, 86), rgb(146, 91, 34));"/></g><g><g><switch><foreignObject style="overflow: visible; text-align: left;" pointer-events="none" width="100%" height="100%" requiredFeatures="http://www.w3.org/TR/SVG11/feature#Extensibility"><div xmlns="http://www.w3.org/1999/xhtml" style="display: flex; align-items: unsafe center; justify-content: unsafe center; width: 71px; height: 1px; padding-top: 195px; margin-left: 107px;"><div style="box-sizing: border-box; font-size: 0; text-align: center; color: #000000; "><div style="display: inline-block; font-size: 12px; font-family: Helvetica; color: light-dark(#000000, #ffffff); line-height: 1.2; pointer-events: all; font-weight: bold; white-space: normal; word-wrap: normal; ">API<div>Server</div></div></div></div></foreignObject><text x="143" y="199" fill="light-dark(#000000, #ffffff)" font-family="Helvetica" font-size="12px" text-anchor="middle" font-weight="bold">API...</text></switch></g></g></g><g data-cell-id="dw0iF2RVfoSowUq9LrTm-28"><g transform="translate(0.5,0.5)"><rect x="186.25" y="162.5" width="72.5" height="65" fill="#d99956" stroke="none" pointer-events="all" style="fill: light-dark(rgb(217, 153, 86), rgb(146, 91, 34));"/></g><g><g><switch><foreignObject style="overflow: visible; text-align: left;" pointer-events="none" width="100%" height="100%" requiredFeatures="http://www.w3.org/TR/SVG11/feature#Extensibility"><div xmlns="http://www.w3.org/1999/xhtml" style="display: flex; align-items: unsafe center; justify-content: unsafe center; width: 71px; height: 1px; padding-top: 195px; margin-left: 187px;"><div style="box-sizing: border-box; font-size: 0; text-align: center; color: #000000; "><div style="display: inline-block; font-size: 12px; font-family: Helvetica; color: light-dark(#000000, #ffffff); line-height: 1.2; pointer-events: all; font-weight: bold; white-space: normal; word-wrap: normal; ">Controller<div>Manager</div></div></div></div></foreignObject><text x="223" y="199" fill="light-dark(#000000, #ffffff)" font-family="Helvetica" font-size="12px" text-anchor="middle" font-weight="bold">Controller...</text></switch></g></g></g><g data-cell-id="dw0iF2RVfoSowUq9LrTm-29"><g transform="translate(0.5,0.5)"><rect x="272.5" y="162.5" width="72.5" height="65" fill="#d99956" stroke="none" pointer-events="all" style="fill: light-dark(rgb(217, 153, 86), rgb(146, 91, 34));"/></g><g><g><switch><foreignObject style="overflow: visible; text-align: left;" pointer-events="none" width="100%" height="100%" requiredFeatures="http://www.w3.org/TR/SVG11/feature#Extensibility"><div xmlns="http://www.w3.org/1999/xhtml" style="display: flex; align-items: unsafe center; justify-content: unsafe center; width: 71px; height: 1px; padding-top: 195px; margin-left: 274px;"><div style="box-sizing: border-box; font-size: 0; text-align: center; color: #000000; "><div style="display: inline-block; font-size: 12px; font-family: Helvetica; color: light-dark(#000000, #ffffff); line-height: 1.2; pointer-events: all; font-weight: bold; white-space: normal; word-wrap: normal; ">Scheduler</div></div></div></foreignObject><text x="309" y="199" fill="light-dark(#000000, #ffffff)" font-family="Helvetica" font-size="12px" text-anchor="middle" font-weight="bold">Scheduler</text></switch></g></g></g><g data-cell-id="dw0iF2RVfoSowUq9LrTm-31"><g transform="translate(0.5,0.5)"><path d="M 197 481.72 C 197 486.01 193.42 489.75 189.01 489.75 L 158.11 489.75 C 153.3 489.75 150 485.63 150 481.75 L 150 448.05 C 150 443.28 154.15 440 157.85 440 L 189.01 440 C 193.22 440 197 443.54 197 448.2 Z" fill="#2e73b8" stroke="none" pointer-events="all" style="fill: light-dark(rgb(46, 115, 184), rgb(95, 155, 214));"/><path d="M 197 479.52 L 197 481.72 C 197 486.01 193.43 489.75 189.01 489.75 L 158.11 489.75 C 153.3 489.75 150 485.63 150 481.75 L 150 479.32 C 150 484.12 153.93 487.59 157.82 487.59 L 188.96 487.59 C 193.72 487.59 197 483.5 197 479.52 Z" fill-opacity="0.3" fill="#000000" stroke="none" pointer-events="all" style="fill: light-dark(rgb(0, 0, 0), rgb(237, 237, 237));"/><rect x="150" y="440" width="0" height="0" fill="none" stroke="#000000" pointer-events="all" style="stroke: light-dark(rgb(0, 0, 0), rgb(255, 255, 255));"/><path d="M 153.42 450.68 L 154.23 450.68 C 154.97 450.64 155.2 450.18 155.29 449.81 C 155.33 449.54 155.37 449.12 155.2 448.73 C 155.05 448.44 154.85 448.2 154.21 448.17 L 153.42 448.17 Z M 153.42 451.58 L 153.42 454.42 L 152.21 454.42 L 152.21 447.54 L 154.54 447.54 C 154.91 447.54 155.72 447.58 156.1 448.27 C 156.38 448.74 156.48 449.61 156.3 450.21 C 156.11 451.05 155.38 451.58 154.42 451.58 Z M 159.74 451.35 C 159.72 450.87 159.64 450.44 159.42 450.14 C 159.13 449.76 158.55 449.87 158.34 450.08 C 158.13 450.27 158.03 450.66 157.99 451.16 C 157.96 451.76 157.95 452.43 157.99 452.9 C 158.05 453.6 158.42 453.76 158.57 453.81 C 159 453.89 159.34 453.79 159.51 453.55 C 159.66 453.33 159.7 453.11 159.74 452.51 C 159.75 452.06 159.77 451.7 159.74 451.35 Z M 160.82 451.66 C 160.83 452.7 160.67 453.58 160.18 454.1 C 159.78 454.56 159.09 454.74 158.35 454.58 C 157.87 454.45 157.33 454.13 157.06 453.16 C 156.87 452.43 156.89 451.45 156.99 450.73 C 157.17 449.65 157.67 449.17 158.57 449.08 C 159.32 449.02 159.9 449.2 160.26 449.64 C 160.58 450.03 160.81 450.74 160.82 451.66 Z M 164.99 450.87 L 163.93 450.87 L 163.93 450.48 C 163.92 450.09 163.77 449.76 163.36 449.71 C 163.05 449.69 162.79 449.72 162.63 449.94 C 162.51 450.15 162.46 450.43 162.58 450.78 C 162.73 451.04 163.18 451.22 163.76 451.43 C 164.51 451.67 165.06 452.03 165.08 452.97 C 165.09 453.82 164.71 454.22 164.28 454.43 C 163.72 454.72 162.78 454.68 162.31 454.5 C 161.75 454.27 161.48 453.77 161.53 452.84 L 162.51 452.84 C 162.49 453.57 162.65 453.78 162.84 453.91 C 163.12 454.07 163.69 454.03 163.95 453.81 C 164.09 453.66 164.26 453.39 164.15 452.94 C 163.98 452.33 163.33 452.33 162.73 452.11 C 162.12 451.91 161.58 451.51 161.61 450.56 C 161.61 449.89 161.98 449.54 162.31 449.38 C 162.86 449.11 163.69 449.11 164.13 449.27 C 164.7 449.48 165.04 449.89 164.99 450.87 Z M 168.01 453.64 L 168 454.45 C 167.74 454.55 167.37 454.56 166.88 454.54 C 166.28 454.49 166.08 454.19 166.09 453.21 L 166.09 449.97 L 165.34 449.97 L 165.42 449.16 L 166.09 449.16 L 166.09 447.54 L 167.22 447.54 L 167.22 449.16 L 168.1 449.16 L 168.09 449.97 L 167.22 449.97 L 167.22 453.09 C 167.22 453.48 167.24 453.61 167.55 453.64 C 167.69 453.65 167.84 453.66 168.01 453.64 Z M 171.19 450.56 C 171.03 449.99 170.75 449.89 170.49 449.88 C 169.98 449.88 169.76 450.25 169.69 450.58 C 169.6 450.99 169.57 451.64 169.57 452.12 C 169.57 452.96 169.76 453.22 169.9 453.37 C 170.08 453.57 170.6 453.66 170.87 453.37 C 171.12 453.12 171.21 452.78 171.25 452.4 C 171.32 451.84 171.29 450.96 171.19 450.56 Z M 172.35 449.16 L 172.35 454.22 C 172.35 455.24 171.98 455.81 171.39 456.08 C 170.94 456.27 170.14 456.33 169.52 456.13 C 168.93 455.94 168.61 455.49 168.61 454.91 L 169.59 454.91 C 169.6 455.27 169.82 455.45 170.17 455.52 C 170.56 455.58 170.87 455.47 171.05 455.28 C 171.22 455.07 171.29 454.82 171.28 454.54 L 171.28 453.65 C 171.15 454.02 170.72 454.31 170.25 454.37 C 169.57 454.42 169.2 454.1 168.95 453.73 C 168.75 453.4 168.54 452.78 168.53 451.69 C 168.54 450.76 168.63 449.93 169.14 449.38 C 169.46 449.08 169.83 448.98 170.24 448.98 C 170.83 448.99 171.28 449.42 171.38 449.78 L 171.37 449.16 Z M 175.91 448.99 L 175.91 450.07 C 175.48 449.9 175.18 449.95 174.87 450.11 C 174.58 450.26 174.38 450.6 174.38 451.06 L 174.38 454.42 L 173.32 454.42 L 173.32 449.16 L 174.38 449.16 L 174.39 449.96 C 174.57 449.52 174.83 449.2 175.2 449.05 C 175.41 448.98 175.58 448.98 175.91 448.99 Z M 178.99 451.22 C 179.02 450.8 178.98 450.38 178.84 450.14 C 178.74 449.97 178.55 449.77 178.15 449.78 C 177.76 449.82 177.55 450.03 177.44 450.31 C 177.35 450.56 177.33 450.88 177.31 451.22 Z M 179.97 452.75 C 179.97 453.27 179.84 454.01 179.1 454.42 C 178.55 454.7 177.76 454.69 177.24 454.5 C 176.91 454.36 176.43 454.01 176.24 452.96 C 176.11 452.26 176.12 450.88 176.39 450.19 C 176.79 449.2 177.56 449.06 178.18 449.06 C 178.73 449.09 179.43 449.2 179.76 449.97 C 180.01 450.58 179.97 451.3 179.97 451.94 L 177.33 451.94 C 177.31 452.44 177.33 452.87 177.41 453.17 C 177.5 453.64 177.77 453.93 178.22 453.91 C 178.68 453.91 178.99 453.47 178.99 452.75 Z M 185.02 449.35 L 183.88 449.35 C 183.9 448.99 183.85 448.63 183.63 448.41 C 183.46 448.25 183.23 448.13 182.69 448.19 C 182.27 448.27 182.07 448.54 181.96 448.82 C 181.85 449.34 181.98 449.73 182.21 449.93 C 182.55 450.24 183.02 450.3 183.84 450.66 C 184.34 450.86 184.83 451.16 185.03 451.82 C 185.21 452.54 185.07 453.24 184.92 453.54 C 184.74 453.97 184.35 454.44 183.41 454.6 C 182.76 454.68 181.92 454.68 181.32 454.16 C 180.94 453.81 180.66 453.25 180.68 452.3 L 181.92 452.3 C 181.9 453.04 182.05 453.3 182.24 453.49 C 182.57 453.78 183.3 453.83 183.69 453.57 C 183.95 453.37 184.22 453.05 184.11 452.45 C 184.02 451.91 183.71 451.65 183.02 451.45 C 182.41 451.24 181.79 451.06 181.39 450.63 C 181.17 450.38 180.91 450 180.94 449.06 C 181 448.41 181.3 447.87 181.88 447.56 C 182.39 447.27 183.02 447.21 183.62 447.32 C 183.98 447.39 184.35 447.51 184.66 447.87 C 185 448.31 185.03 448.82 185.02 449.35 Z M 189.2 453.03 C 189.36 452.6 189.44 452 189.46 451.28 C 189.47 450.74 189.47 449.87 189.3 449.18 C 189.16 448.62 188.92 448.3 188.58 448.21 C 188.21 448.13 187.94 448.2 187.73 448.38 C 187.38 448.72 187.28 449.3 187.21 449.94 C 187.15 450.6 187.13 451.37 187.23 452.32 C 187.32 452.93 187.48 453.39 187.74 453.63 C 188.01 453.9 188.58 453.85 188.75 453.75 L 188.13 453.19 L 188.76 452.56 Z M 190.78 454.46 L 190.18 455.09 L 189.37 454.36 C 189.17 454.49 188.95 454.62 188.3 454.64 C 187.58 454.64 186.95 454.39 186.54 453.72 C 186.12 453.03 185.99 451.99 186 450.8 C 186.02 449.87 186.12 448.94 186.51 448.24 C 186.89 447.59 187.51 447.26 188.4 447.27 C 189.14 447.29 189.78 447.63 190.08 448.21 C 190.57 449.04 190.62 450.13 190.62 451.04 C 190.62 452.14 190.41 453.08 190.08 453.73 Z M 195.4 454.42 L 191.58 454.42 L 191.58 447.54 L 192.76 447.54 L 192.76 453.46 L 195.4 453.46 Z" fill="#ffffff" stroke="none" pointer-events="all" style="fill: light-dark(rgb(255, 255, 255), rgb(18, 18, 18));"/></g></g></g></g></g><switch><g requiredFeatures="http://www.w3.org/TR/SVG11/feature#Extensibility"/><a transform="translate(0,-5)" xlink:href="https://www.drawio.com/doc/faq/svg-export-text-problems" target="_blank"><text text-anchor="middle" font-size="10px" x="50%" y="100%">Text is not SVG - cannot display</text></a></switch></svg>